<svg viewBox="0 0 96 96" xmlns="http://www.w3.org/2000/svg" xmlns:xlink="http://www.w3.org/1999/xlink" id="Icons_DoctorMale_M" overflow="hidden"><g id="Icons"><path d="M75.628 58.226C72 55.26 67.7 53.411 63.167 51.792L58.241 49.771C57.489 49.4643 56.9981 48.7322 57 47.92L57 44.973C60.7731 42.1489 62.9961 37.7129 63 33L63 32.341 65.2 29.525C66.0706 28.4014 66.4688 26.9826 66.31 25.57 65.7317 19.2192 61.8807 13.6307 56.152 10.829 55.3892 10.4656 54.4896 10.542 53.799 11.029L53.675 11.116 53.227 10.504C52.7598 9.8525 52.0571 9.40876 51.268 9.267 41.4938 7.5738 32.1734 14.0493 30.35 23.8L30.311 24C29.8935 26.2484 29.0232 28.3884 27.753 30.29 27.4465 30.7494 27.5704 31.3703 28.0299 31.6769 28.1942 31.7865 28.3874 31.845 28.585 31.845L33 31.845 33 33C33.0043 37.7093 35.2244 42.142 38.993 44.966L38.993 47.92C38.9949 48.7322 38.504 49.4643 37.752 49.771L32.791 51.806C28.276 53.422 23.991 55.267 20.385 58.213 18.2903 59.8486 17.0464 62.3428 17 65L17 82.034 17.445 82.334C22.121 85.452 35.273 87.008 48.318 87.008 61.418 87.008 74.411 85.438 78.591 82.302L79 82 79 64.979C78.9492 62.3353 77.7107 59.8551 75.628 58.226ZM62.505 62C63.6096 62 64.505 62.8954 64.505 64 64.505 65.1046 63.6096 66 62.505 66 61.4004 66 60.505 65.1046 60.505 64 60.505 62.8954 61.4004 62 62.505 62ZM32.277 24.371 32.315 24.171C33.9334 15.4921 42.2283 9.72691 50.927 11.235 51.2045 11.2907 51.45 11.4507 51.613 11.682L52.637 13.082C52.9574 13.5203 53.5691 13.6229 54.015 13.313L54.941 12.668 54.941 12.668C55.0377 12.5975 55.1641 12.582 55.275 12.627 60.3722 15.1211 63.799 20.0938 64.315 25.745 64.4302 26.6574 64.1784 27.5782 63.615 28.305L62.901 29.22C62.6735 27.8412 62.0665 26.5531 61.148 25.5L57.748 21.6C57.4975 21.3159 57.1089 21.1961 56.742 21.29 54.892 21.771 53.729 23.227 52.497 24.769 50.597 27.147 48.444 29.843 42.997 29.843L30.351 29.843C31.2711 28.1292 31.9208 26.2834 32.277 24.371ZM35 33 35 31.847 43 31.847C49.412 31.847 52.1 28.48 54.065 26.021 54.7551 24.9867 55.6524 24.1068 56.7 23.437L59.644 26.814C60.518 27.8195 60.9996 29.1067 61 30.439L61 33C61 40.1797 55.1797 46 48 46 40.8203 46 35 40.1797 35 33ZM38.512 51.621C40.0181 51.0096 41.0024 49.5454 41 47.92L41 46.253C45.3784 48.5796 50.6265 48.5796 55.005 46.253L55.005 47.92C55.0021 49.5433 55.9832 51.0063 57.486 51.62L58.322 51.963C55.0728 53.3921 51.5485 54.0876 48 54 44.4515 54.0874 40.9273 53.3919 37.678 51.963ZM77 80.975C68.429 86.425 28.487 86.4 19 80.942L19 65.021C19.0402 62.9641 20.0079 61.0356 21.633 59.774 24.9123 57.2735 28.5848 55.3361 32.5 54.041L32.5 60.022C28.839 60.2842 26.0022 63.3296 26 67L26 74.5C26.0032 75.8923 26.9639 77.0994 28.32 77.415 28.825 78.0717 29.7668 78.1946 30.4235 77.6896 31.0802 77.1846 31.2031 76.2428 30.6981 75.5861 30.1931 74.9295 29.2513 74.8065 28.5946 75.3115 28.5722 75.3287 28.5504 75.3466 28.529 75.365 28.2072 75.1957 28.0041 74.8636 28 74.5L28 67C28.0033 64.2399 30.2399 62.0033 33 62L34 62C36.7601 62.0033 38.9967 64.2399 39 67L39 74.5C38.9963 74.8634 38.7936 75.1956 38.472 75.365 37.8448 74.8237 36.8977 74.8934 36.3564 75.5205 35.8151 76.1477 35.8848 77.0949 36.5119 77.6361 37.1391 78.1774 38.0863 78.1078 38.6275 77.4806 38.646 77.4592 38.6638 77.4374 38.681 77.415 40.0367 77.099 40.9969 75.892 41 74.5L41 67C40.9963 63.3308 38.1599 60.2871 34.5 60.025L34.5 53.325C34.818 53.214 35.134 53.102 35.453 52.992 38.163 54.856 42.891 56 48 56 53.109 56 57.835 54.856 60.54 52.99 60.863 53.101 61.182 53.214 61.503 53.326L61.503 60.075C61.503 60.098 61.515 60.116 61.516 60.138 59.3752 60.6834 58.0819 62.8609 58.6273 65.0017 59.1727 67.1424 61.3502 68.4358 63.491 67.8904 65.6318 67.345 66.9251 65.1674 66.3797 63.0267 66.0182 61.6076 64.9101 60.4995 63.491 60.138 63.491 60.116 63.503 60.097 63.503 60.075L63.503 54.045C67.421 55.3427 71.0958 57.2832 74.377 59.787 75.9912 61.0414 76.9546 62.9562 77 65Z" fill="#FFFFFF"/><circle cx="62.505" cy="64" r="1" fill="#FFFFFF"/></g></svg>